# xmcd
#
# Track frame offsets: 
#        150
#        18267
#        26500
#        37825
#        69742
#        83942
#        96410
#        105505
#        122495
#        134865
#        150150
#        161367
#        169540
#        182460
#        196490
#        208610
#        218930
#        230705
#        245950
#        260460
#        271215
#        280432
#        288982
#
# Disc length: 4056 seconds
#
# Revision: 5
# Processed by: cddbd v1.5.2PL0 Copyright (c) Steve Scherf et al.
# Submitted via: ExactAudioCopyFreeDBPlugin 1.0
#
DISCID=4a0fd617
DTITLE=Dylan, Bob and Cash, Johnny - Sessions 1969
DYEAR=1969
DGENRE=Country
TTITLE0=One Too Many Mornings
TTITLE1=Good Ol' Mountain Dew
TTITLE2=I Still Miss Someone
TTITLE3=Careless Love
TTITLE4=Matchbox
TTITLE5=That's Alright Mama
TTITLE6=Big River
TTITLE7=Girl From The North Country
TTITLE8=I Walk The Line
TTITLE9=You Are My Sunshine
TTITLE10=Ring Of Fire
TTITLE11=Guess Things Happen That Way
TTITLE12=Just A Closer Walk With Thee
TTITLE13=Blue Yodel #1 (T For Texas)
TTITLE14=Blue Yodel #2
TTITLE15=I Threw It All Away [Live 5-1-69, Nashville, TN]
TTITLE16=Living The Blues [Live 5-1-69, Nashville, TN]
TTITLE17=Girl From The North Country [Live 5-1-69, Nashville, TN]
TTITLE18=Nashville Skyline Rag [Quadraphonic Mix]
TTITLE19=I Threw It All Away [Quadraphonic Mix]
TTITLE20=Peggy Day [Quadraphonic Mix]
TTITLE21=Country Pie [Quadraphonic Mix]
TTITLE22=Tonight I'll Be Staying Here With You [Quadraphonic Mix]
EXTD=Tracks 1-15 Dylan and Cash Studio Outtakes\n17-18 Feb. 1969, Columb
EXTD=ia Studios, Nashville\n\nTracks 16-18 Dylan on The Johnny Cash Sh
EXTD=ow\n1 May 1969, Ryman Auditorium, Nashville\n\nTracks 19-23 Nashv
EXTD=ille Skyline Quad Mixes\n13-14 Feb. 1969, Columbia Studios, Nashv
EXTD=ille
EXTT0=
EXTT1=
EXTT2=
EXTT3=
EXTT4=
EXTT5=
EXTT6=
EXTT7=
EXTT8=
EXTT9=
EXTT10=
EXTT11=
EXTT12=
EXTT13=
EXTT14=
EXTT15=
EXTT16=
EXTT17=
EXTT18=
EXTT19=
EXTT20=
EXTT21=
EXTT22=
PLAYORDER=
